<?xml version="1.0" encoding="utf-8"?>
<!-- Generator: Adobe Illustrator 25.2.3, SVG Export Plug-In . SVG Version: 6.00 Build 0)  -->
<svg version="1.1" id="Layer_1" xmlns="http://www.w3.org/2000/svg" xmlns:xlink="http://www.w3.org/1999/xlink" x="0px" y="0px"
	 viewBox="0 0 40 40" style="enable-background:new 0 0 40 40;" xml:space="preserve">
<style type="text/css">
	.st0{fill:#E60965;}
	.st1{fill:#FFFFFF;}
</style>
<g>
	<path class="st0" d="M37.07,16.18C35.53,9.15,31.14,4.56,24.18,2.55c-0.35-0.11-0.7-0.18-1.08-0.27C22.25,2.12,21.23,2,20.06,2
		H19.9c-1.16,0-2.18,0.13-3.02,0.28l-0.12,0.04c-0.06,0.01-0.11,0.02-0.16,0.04c-1.99,0.4-3.84,1.11-5.56,2.18
		C4.67,8.49,1.46,15.67,2.72,23.17c1.27,7.62,7.42,13.72,14.99,14.67c5.44,0.69,10.24-0.85,14.16-4.64
		C36.71,28.52,38.51,22.72,37.07,16.18z"/>
	<path class="st1" d="M19.98,5.53c-7.97,0-14.44,6.48-14.44,14.45c-0.01,8.01,6.47,14.53,14.44,14.53c7.94,0,14.43-6.51,14.44-14.48
		C34.43,12.03,27.96,5.53,19.98,5.53z M20.76,32.85v-1.93c-0.01-0.62-0.29-0.96-0.78-0.96c-0.5,0-0.78,0.34-0.78,0.96
		c-0.01,0.64,0,1.28,0,1.93C12.9,32.71,7.32,27.08,7.18,20.78H9.1c0.61-0.01,0.97-0.3,0.96-0.78c0-0.47-0.36-0.78-0.97-0.78H7.17
		c0.19-5.91,5.13-11.69,12.04-12.1c0,0.69-0.01,1.37,0,2.06c0,0.5,0.25,0.81,0.68,0.86c0.47,0.06,0.85-0.28,0.86-0.81
		c0.01-0.69,0.01-1.38,0.01-2.11c6.88,0.4,11.83,6.16,12.03,12.1h-2.01c-0.41,0-0.73,0.16-0.85,0.58c-0.15,0.5,0.19,0.95,0.78,0.96
		c0.69,0.02,1.38,0.01,2.07,0.01C32.66,26.96,27.18,32.7,20.76,32.85z"/>
	<path class="st1" d="M25.23,12.92c0.11-0.45,0.13-0.85-0.3-1.1c-0.42-0.25-0.75-0.05-1.09,0.23c-1.22,1.08-2.45,2.16-3.72,3.17
		c-0.47,0.38-1.02,0.68-1.58,0.9c-1.78,0.73-2.88,2.63-2.58,4.53c0.05,0.3,0.05,0.64-0.01,0.96c-0.17,0.98-0.38,1.96-0.58,2.94
		c-0.19,0.91-0.62,2.61-0.57,2.88c0.02,0.19,0.13,0.41,0.34,0.56c0.32,0.21,0.64,0.11,0.93-0.15c1.14-0.96,2.27-1.93,3.42-2.85
		c0.47-0.39,0.98-0.8,1.54-0.99c2.08-0.75,3.21-2.52,2.91-4.71c-0.02-0.21-0.05-0.42,0-0.62C24.36,16.75,24.78,14.83,25.23,12.92z
		 M22.57,17.44c-0.11,0.76-0.16,1.54-0.13,2.3c0.06,1.33-0.63,2.28-1.85,2.79c-0.8,0.34-1.51,0.9-2.24,1.39
		c-0.48,0.34-0.93,0.74-1.47,1.16c0.18-0.93,0.39-1.77,0.5-2.63c0.1-0.73,0.13-1.47,0.1-2.21c-0.06-1.09,0.48-2.22,1.49-2.58
		c1.11-0.4,1.99-1.11,2.88-1.82c0.4-0.32,0.79-0.65,1.27-1.05C22.92,15.75,22.69,16.59,22.57,17.44z"/>
	<path class="st1" d="M19.94,17.76c-1.2,0-2.19,1.03-2.18,2.25c0.01,1.24,0.99,2.22,2.21,2.22c1.22-0.01,2.18-0.99,2.18-2.24
		C22.13,18.77,21.14,17.76,19.94,17.76z M19.96,20.84c-0.45,0.01-0.81-0.39-0.8-0.86c0.01-0.47,0.38-0.82,0.84-0.8
		c0.44,0.01,0.76,0.39,0.75,0.85C20.74,20.47,20.37,20.84,19.96,20.84z"/>
</g>
</svg>
