<?xml version="1.0" encoding="utf-8"?>
<!-- Generator: Adobe Illustrator 25.2.3, SVG Export Plug-In . SVG Version: 6.00 Build 0)  -->
<svg version="1.1" id="Layer_1" xmlns="http://www.w3.org/2000/svg" xmlns:xlink="http://www.w3.org/1999/xlink" x="0px" y="0px"
	 viewBox="0 0 40 40" style="enable-background:new 0 0 40 40;" xml:space="preserve">
<style type="text/css">
	.st0{fill:#E60965;}
	.st1{fill:#FFFFFF;}
</style>
<g>
	<path d="M29.09,37.94c-0.68-0.2-1.39-0.32-2.03-0.61c-2.79-1.29-4.19-4.3-3.44-7.28c0.02-0.08,0.04-0.16,0.07-0.27
		c-0.09-0.05-0.19-0.11-0.29-0.16c-3.09-1.58-6.17-3.15-9.25-4.74c-0.27-0.14-0.39-0.09-0.57,0.13c-1.76,2.17-4.61,2.91-7.24,1.89
		c-2.49-0.97-4.14-3.51-3.93-6.23c0.2-2.62,1.55-4.52,4-5.47c2.51-0.97,4.79-0.43,6.75,1.43c0.22,0.21,0.35,0.24,0.61,0.08
		c3.25-1.96,6.5-3.91,9.75-5.87c0.1-0.06,0.2-0.12,0.32-0.2c-0.66-1.83-0.56-3.61,0.37-5.31c0.73-1.34,1.82-2.31,3.25-2.84
		c3-1.13,6.2,0.05,7.78,2.82c1.48,2.6,0.83,5.98-1.51,7.93c-2.3,1.91-6.21,2.14-8.82-0.77c-0.09,0.05-0.2,0.11-0.29,0.16
		c-3.25,1.95-6.5,3.91-9.76,5.85c-0.25,0.15-0.31,0.27-0.21,0.55c0.41,1.12,0.45,2.26,0.17,3.41c-0.07,0.29-0.01,0.43,0.26,0.57
		c3.06,1.55,6.11,3.12,9.17,4.68c0.12,0.06,0.25,0.12,0.39,0.19c0.25-0.27,0.48-0.55,0.75-0.79c1.82-1.66,3.93-2.19,6.26-1.44
		c2.36,0.76,3.8,2.44,4.28,4.88c0.67,3.48-1.78,6.85-5.3,7.35c-0.09,0.01-0.18,0.05-0.27,0.07C29.93,37.94,29.51,37.94,29.09,37.94z
		 M29.72,4.15c-2.32,0-4.21,1.9-4.2,4.22c0.01,2.3,1.89,4.19,4.19,4.19c2.32,0.01,4.22-1.88,4.22-4.2
		C33.93,6.05,32.03,4.15,29.72,4.15z M8.69,16.84c-2.32,0-4.21,1.9-4.21,4.21c0,2.3,1.88,4.19,4.19,4.2
		c2.32,0.01,4.22-1.88,4.22-4.19C12.9,18.74,11.01,16.84,8.69,16.84z M25.52,31.64c0,2.32,1.9,4.21,4.22,4.2
		c2.3-0.01,4.19-1.89,4.19-4.19c0.01-2.32-1.88-4.22-4.2-4.22C27.41,27.43,25.51,29.32,25.52,31.64z"/>
</g>
</svg>
