<?xml version="1.0" encoding="utf-8"?>
<!-- Generator: Adobe Illustrator 25.2.3, SVG Export Plug-In . SVG Version: 6.00 Build 0)  -->
<svg version="1.1" id="Layer_1" xmlns="http://www.w3.org/2000/svg" xmlns:xlink="http://www.w3.org/1999/xlink" x="0px" y="0px"
	 viewBox="0 0 40 40" style="enable-background:new 0 0 40 40;" xml:space="preserve">
<style type="text/css">
	.st0{fill:#E60965;}
	.st1{fill:#FFFFFF;}
</style>
<g>
	<path class="st0" d="M38.21,13.5c-0.2-1.97-0.82-3.79-1.94-5.44C34,4.72,29.83,3.08,25.9,4.01c-2.25,0.53-4.02,1.83-5.46,3.6
		c-0.14,0.17-0.27,0.34-0.42,0.54c-0.17-0.21-0.29-0.39-0.43-0.55c-2.49-3-5.63-4.4-9.53-3.65c-3.76,0.73-6.27,3.04-7.56,6.59
		c-1.43,3.92-0.82,7.64,1.44,11.12c1.26,1.94,2.8,3.64,4.51,5.17c3.34,2.97,6.72,5.89,10.1,8.82c0.96,0.83,2.03,0.8,3.03-0.06
		c2.6-2.23,5.19-4.46,7.78-6.71c2.19-1.91,4.31-3.88,6.06-6.22c1.13-1.52,2.04-3.15,2.49-5.01c0.17-0.7,0.26-1.42,0.38-2.13
		c0-0.55,0-1.09,0-1.64C38.25,13.75,38.22,13.62,38.21,13.5z M34.27,20.54c-1.48,2.24-3.38,4.11-5.38,5.87
		c-2.86,2.52-5.77,5-8.65,7.49c-0.07,0.06-0.15,0.12-0.24,0.19c-0.76-0.65-1.51-1.29-2.25-1.93c-2.62-2.29-5.26-4.56-7.85-6.89
		c-1.57-1.41-2.99-2.96-4.15-4.73c-1.88-2.85-2.42-5.92-1.28-9.17c0.98-2.8,2.91-4.66,5.84-5.3c2.72-0.59,5.09,0.19,7,2.21
		c0.59,0.63,1.07,1.36,1.59,2.05c0.6,0.8,1.64,0.8,2.23,0c0.13-0.18,0.25-0.38,0.37-0.56c0.89-1.3,1.95-2.43,3.4-3.13
		c2.44-1.17,4.86-1,7.16,0.35c2.46,1.45,3.65,3.75,4,6.53C36.38,16.08,35.68,18.4,34.27,20.54z"/>
	<path class="st0" d="M27.28,7.76c-0.18,0-0.32-0.01-0.47,0C26.42,7.8,26.14,8.01,26,8.37c-0.15,0.37-0.1,0.72,0.16,1.03
		c0.25,0.3,0.6,0.36,0.97,0.37c2.9,0.12,5.14,2.41,5.21,5.31c0.02,0.67,0.44,1.11,1.04,1.1c0.58-0.01,0.99-0.47,0.98-1.12
		C34.33,11.17,31.16,7.9,27.28,7.76z"/>
</g>
</svg>
