<?xml version="1.0" encoding="utf-8"?>
<!-- Generator: Adobe Illustrator 25.2.3, SVG Export Plug-In . SVG Version: 6.00 Build 0)  -->
<svg version="1.1" id="Layer_1" xmlns="http://www.w3.org/2000/svg" xmlns:xlink="http://www.w3.org/1999/xlink" x="0px" y="0px"
	 viewBox="0 0 40 40" style="enable-background:new 0 0 40 40;" xml:space="preserve">
<style type="text/css">
	.st0{fill:#E60965;}
	.st1{fill:#FFFFFF;}
</style>
<g>
	<path class="st0" d="M10.91,17.5c0.88,0.12,1.78,0.11,2.68,0.11c1.1,0,1.99,0.38,2.7,1.22c0.21,0.25,0.44,0.49,0.67,0.73
		c0.16,0.17,0.35,0.23,0.52,0.22c0.02,0.02,0.04,0.02,0.07,0.01c0.41-0.13,1.22-1.17,1.87-1.86c0.04-0.03,0.08-0.05,0.12-0.09
		c0.02-0.03,0.03-0.06,0.05-0.09c0.01-0.01,0.01-0.01,0.02-0.02l-0.01,0c0.12-0.22,0.07-0.48-0.16-0.71
		c-0.26-0.25-0.54-0.49-0.81-0.74c-0.73-0.66-1.1-1.48-1.1-2.47c0-0.64,0.02-1.27-0.01-1.91c-0.05-1.44-0.54-2.7-1.66-3.65
		c-2.3-1.95-4.62-3.89-6.93-5.83C8.83,2.34,8.72,2.25,8.6,2.18C7.76,1.68,6.7,2.27,6.69,3.25C6.68,3.68,6.89,4.01,7.18,4.3
		c1.77,1.76,3.53,3.53,5.3,5.3c0.13,0.13,0.2,0.23,0.24,0.32l-0.23,0.49c-0.06,0.05-0.1,0.09-0.17,0.15
		c-0.07-0.1-0.13-0.22-0.22-0.31C10.18,8.34,8.27,6.42,6.35,4.5C6.26,4.41,6.17,4.31,6.06,4.24C5.83,4.08,5.59,4.08,5.39,4.28
		c-0.22,0.21-0.24,0.45-0.07,0.7c0.07,0.11,0.17,0.19,0.26,0.29c1.92,1.93,3.85,3.85,5.78,5.78c0.09,0.09,0.17,0.18,0.22,0.23
		c-0.13,0.18-0.23,0.32-0.36,0.5c-0.13-0.15-0.21-0.26-0.3-0.35c-1.95-1.95-3.9-3.9-5.85-5.85C4.74,5.25,4.45,5.21,4.2,5.46
		C3.95,5.7,3.98,6,4.29,6.32c0.07,0.07,0.13,0.13,0.2,0.2c1.89,1.89,3.78,3.78,5.68,5.68c0.09,0.09,0.17,0.18,0.26,0.27
		c-0.38,0.49-0.51,0.51-0.93,0.09c-1.74-1.74-3.48-3.48-5.23-5.22C4.16,7.23,4.06,7.12,3.93,7.03C3.29,6.55,2.4,6.76,2.04,7.48
		C1.99,7.57,1.94,7.66,1.9,7.76c0,0.19,0,0.38,0,0.57c0.21,0.31,0.39,0.64,0.63,0.92c1.87,2.23,3.75,4.46,5.62,6.69
		C8.87,16.8,9.8,17.35,10.91,17.5z"/>
	<path class="st0" d="M28.87,16.39c0.67-0.05,1.34-0.08,2.01-0.14c1.47-0.12,2.7-0.74,3.6-1.92c0.66-0.87,1.26-1.79,1.87-2.7
		C37.82,9.42,38.4,7,37.96,4.37c-0.07-0.42-0.29-0.85-0.56-1.19c-0.54-0.68-1.32-0.81-1.92-0.76c-2.1,0.03-3.89,0.47-5.42,1.57
		c-1.29,0.92-2.48,1.98-3.67,3.04c-0.9,0.8-1.42,1.85-1.5,3.06c-0.05,0.76-0.03,1.53,0.05,2.29c0.12,1.25-0.24,2.26-1.13,3.16
		c-5.71,5.84-11.4,11.7-17.1,17.55c-0.64,0.66-0.94,1.42-0.79,2.34C6.12,36.67,6.8,37.5,8,37.87c1.2,0.36,2.25,0,3.05-0.98
		c1.88-2.33,3.76-4.66,5.64-6.99c3.28-4.06,6.56-8.12,9.83-12.19C27.12,16.93,27.88,16.46,28.87,16.39z"/>
	<path class="st0" d="M25.51,22.56c-0.09-0.08-0.18-0.16-0.27-0.22c-0.15-0.09-0.3-0.1-0.43-0.05l0,0c0,0-0.01,0.01-0.01,0.01
		c-0.07,0.03-0.13,0.07-0.2,0.13c-0.01,0.01-0.01,0.01-0.01,0.02c-0.6,0.52-1.92,2.15-2.14,2.68c-0.02,0.04-0.03,0.09-0.04,0.13
		c0,0.01-0.01,0.02-0.01,0.02c0,0,0.01,0.01,0.01,0.01c0,0.09,0.02,0.19,0.08,0.29c0.1,0.16,0.23,0.3,0.36,0.44
		c3.36,3.69,6.71,7.37,10.08,11.05c0.19,0.21,0.41,0.4,0.64,0.54c1.89,1.12,4.28-0.28,4.35-2.61c0-0.76-0.32-1.45-0.94-2.01
		C33.15,29.51,29.33,26.03,25.51,22.56z"/>
</g>
</svg>
