<?xml version="1.0" encoding="utf-8"?>
<!-- Generator: Adobe Illustrator 25.2.3, SVG Export Plug-In . SVG Version: 6.00 Build 0)  -->
<svg version="1.1" id="Layer_1" xmlns="http://www.w3.org/2000/svg" xmlns:xlink="http://www.w3.org/1999/xlink" x="0px" y="0px"
	 viewBox="0 0 40 40" style="enable-background:new 0 0 40 40;" xml:space="preserve">
<style type="text/css">
	.st0{fill:#E60965;}
	.st1{fill:#FFFFFF;}
</style>
<g>
	<path class="st0" d="M10.91,17.5c0.88,0.12,1.78,0.11,2.68,0.11c1.1,0,1.99,0.38,2.7,1.22c0.21,0.25,0.44,0.49,0.67,0.73
		c0.27,0.27,0.58,0.3,0.81,0.09c0.24-0.22,0.24-0.52-0.01-0.82c-0.31-0.35-0.63-0.7-0.96-1.04c-0.66-0.68-1.46-1.13-2.41-1.2
		c-0.83-0.07-1.67-0.04-2.51-0.06c-1.2-0.04-2.22-0.46-3-1.4c-1.05-1.27-2.12-2.53-3.18-3.79c-0.85-1.01-1.7-2.02-2.54-3.04
		C3.08,8.21,3.1,8.04,3.07,7.9c0.12,0.05,0.25,0.08,0.36,0.14C3.52,8.1,3.58,8.19,3.66,8.26c1.71,1.71,3.42,3.42,5.13,5.13
		c0.76,0.76,1.55,0.75,2.31-0.01c0.72-0.72,1.43-1.43,2.15-2.15c0.82-0.82,0.82-1.59-0.01-2.41c-1.73-1.73-3.45-3.45-5.18-5.18
		C7.99,3.57,7.9,3.5,7.85,3.41C7.81,3.34,7.83,3.25,7.82,3.16c0.09,0,0.19-0.03,0.28,0c0.07,0.02,0.13,0.1,0.19,0.15
		c2.25,1.89,4.49,3.78,6.74,5.67c0.83,0.7,1.3,1.58,1.37,2.65c0.05,0.74,0.04,1.48,0.05,2.23c0,0.77,0.17,1.49,0.56,2.16
		c0.43,0.74,1.1,1.25,1.72,1.81c0.28,0.26,0.6,0.25,0.81,0.01c0.21-0.23,0.17-0.55-0.1-0.81c-0.26-0.25-0.54-0.49-0.81-0.74
		c-0.73-0.66-1.1-1.48-1.1-2.47c0-0.64,0.02-1.27-0.01-1.91c-0.05-1.44-0.54-2.7-1.66-3.65c-2.3-1.95-4.62-3.89-6.93-5.83
		C8.83,2.34,8.72,2.25,8.6,2.18C7.76,1.68,6.7,2.27,6.69,3.25C6.68,3.68,6.89,4.01,7.18,4.3c1.77,1.76,3.53,3.53,5.3,5.3
		c0.41,0.41,0.39,0.54-0.17,0.96c-0.07-0.1-0.13-0.22-0.22-0.31C10.18,8.34,8.27,6.42,6.35,4.5C6.26,4.41,6.17,4.31,6.06,4.24
		C5.83,4.08,5.59,4.08,5.39,4.28c-0.22,0.21-0.24,0.45-0.07,0.7c0.07,0.11,0.17,0.19,0.26,0.29c1.92,1.93,3.85,3.85,5.78,5.78
		c0.09,0.09,0.17,0.18,0.22,0.23c-0.13,0.18-0.23,0.32-0.36,0.5c-0.13-0.15-0.21-0.26-0.3-0.35c-1.95-1.95-3.9-3.9-5.85-5.85
		C4.74,5.25,4.45,5.21,4.2,5.46C3.95,5.7,3.98,6,4.29,6.32c0.07,0.07,0.13,0.13,0.2,0.2c1.89,1.89,3.78,3.78,5.68,5.68
		c0.09,0.09,0.17,0.18,0.26,0.27c-0.38,0.49-0.51,0.51-0.93,0.09c-1.74-1.74-3.48-3.48-5.23-5.22C4.16,7.23,4.06,7.12,3.93,7.03
		C3.29,6.55,2.4,6.76,2.04,7.48C1.99,7.57,1.94,7.66,1.9,7.76c0,0.19,0,0.38,0,0.57c0.21,0.31,0.39,0.64,0.63,0.92
		c1.87,2.23,3.75,4.46,5.62,6.69C8.87,16.8,9.8,17.35,10.91,17.5z"/>
	<path class="st0" d="M28.87,16.39c0.67-0.05,1.34-0.08,2.01-0.14c1.47-0.12,2.7-0.74,3.6-1.92c0.66-0.87,1.26-1.79,1.87-2.7
		C37.82,9.42,38.4,7,37.96,4.37c-0.07-0.42-0.29-0.85-0.56-1.19c-0.54-0.68-1.32-0.81-1.92-0.76c-2.1,0.03-3.89,0.47-5.42,1.57
		c-1.29,0.92-2.48,1.98-3.67,3.04c-0.9,0.8-1.42,1.85-1.5,3.06c-0.05,0.76-0.03,1.53,0.05,2.29c0.12,1.25-0.24,2.26-1.13,3.16
		c-5.71,5.84-11.4,11.7-17.1,17.55c-0.64,0.66-0.94,1.42-0.79,2.34C6.12,36.67,6.8,37.5,8,37.87c1.2,0.36,2.25,0,3.05-0.98
		c1.88-2.33,3.76-4.66,5.64-6.99c3.28-4.06,6.56-8.12,9.83-12.19C27.12,16.93,27.88,16.46,28.87,16.39z M25.73,16.94
		C20.58,23.32,15.43,29.7,10.3,36.1c-0.69,0.86-1.44,0.92-2.14,0.68c-1.2-0.41-1.56-2.05-0.67-2.95
		c5.76-5.87,11.49-11.78,17.23-17.67c0.93-0.96,1.41-2.07,1.3-3.41c-0.03,0-0.06,0-0.09,0c0-0.75-0.01-1.51,0-2.26
		c0.02-0.96,0.32-1.85,1.02-2.49c1.23-1.11,2.47-2.23,3.82-3.18c1.46-1.03,3.18-1.37,4.97-1.31c0.63,0.02,1.07,0.45,1.16,1.07
		c0.35,2.37-0.17,4.54-1.51,6.51c-0.51,0.75-1.02,1.5-1.53,2.25c-0.8,1.17-1.91,1.77-3.32,1.84c-0.88,0.05-1.77,0.11-2.63,0.28
		C27.01,15.64,26.31,16.22,25.73,16.94z"/>
	<path class="st0" d="M25.51,22.56c-0.09-0.08-0.18-0.16-0.27-0.22c-0.23-0.14-0.46-0.11-0.65,0.08c-0.2,0.2-0.22,0.44-0.06,0.68
		c0.08,0.11,0.19,0.21,0.29,0.3c3.8,3.46,7.59,6.93,11.41,10.37c0.92,0.83,0.63,2.23-0.19,2.79c-0.63,0.43-1.67,0.54-2.39-0.26
		c-3.36-3.73-6.75-7.43-10.14-11.14c-0.09-0.1-0.17-0.2-0.28-0.27c-0.22-0.15-0.45-0.15-0.65,0.02c-0.21,0.18-0.26,0.42-0.11,0.67
		c0.1,0.16,0.23,0.3,0.36,0.44c3.36,3.69,6.71,7.37,10.08,11.05c0.19,0.21,0.41,0.4,0.64,0.54c1.89,1.12,4.28-0.28,4.35-2.61
		c0-0.76-0.32-1.45-0.94-2.01C33.15,29.51,29.33,26.03,25.51,22.56z"/>
</g>
</svg>
