<?xml version="1.0" encoding="utf-8"?>
<!-- Generator: Adobe Illustrator 25.2.3, SVG Export Plug-In . SVG Version: 6.00 Build 0)  -->
<svg version="1.1" id="Layer_1" xmlns="http://www.w3.org/2000/svg" xmlns:xlink="http://www.w3.org/1999/xlink" x="0px" y="0px"
	 viewBox="0 0 40 40" style="enable-background:new 0 0 40 40;" xml:space="preserve">
<style type="text/css">
	.st0{fill:#E60965;}
	.st1{fill:#FFFFFF;}
</style>
<path class="st0" d="M30.33,17.41h-0.01l-0.7-7l-0.16-1.58h-7.13c-0.05,0.03-0.12,0.04-0.2,0.04c-1.69-0.01-3.38-0.02-5.07,0
	c-0.33,0-0.44-0.11-0.51-0.41c-0.34-1.53-0.71-3.06-1.06-4.6c-0.05-0.22-0.15-0.32-0.37-0.38c-0.94-0.23-1.88-0.47-2.81-0.73
	C11.5,2.54,10.7,2.3,9.89,2.08H9.75C9.66,2.41,9.57,2.74,9.47,3.1c0.13,0.04,0.24,0.07,0.35,0.1c1.46,0.39,2.92,0.78,4.39,1.15
	c0.23,0.06,0.33,0.16,0.38,0.38c0.28,1.25,0.58,2.5,0.87,3.75c0.03,0.11,0.04,0.22,0.07,0.37H15.1c-1.18,0-2.35,0.01-3.53,0
	c-0.22-0.01-0.32,0.05-0.34,0.28c-0.04,0.51-0.09,1.02-0.15,1.53c-0.24,2.35-0.49,4.69-0.74,7.03c-0.13,1.22-0.26,2.44-0.11,3.67
	c0.51,4.28,3.61,7.78,7.8,8.74c0.58,0.14,1.17,0.21,1.78,0.31c0,0.78-0.02,1.56,0.01,2.34c0.01,0.34-0.1,0.51-0.41,0.66
	c-0.65,0.31-1.27,0.65-1.92,1l-1.32,0.68v0.01c-1.54,0.7-1.86,1.7-1.7,2.82h11.77c0.15-1.21-0.29-2.08-1.33-2.63
	c-1.26-0.66-2.52-1.31-3.78-1.98c-0.1-0.05-0.23-0.17-0.23-0.26c-0.02-0.88-0.01-1.77-0.01-2.68c1.63-0.11,3.14-0.55,4.53-1.35
	c1.41-0.81,2.57-1.89,3.47-3.28c0,0,1.17-1.9,1.43-3.52h-0.01C30.69,20.6,30.49,19.01,30.33,17.41z M24.57,36.35
	c0.18,0.1,0.32,0.29,0.54,0.5h-9.45c0.21-0.47,0.66-0.59,1.04-0.82l1.15-0.59c0.76-0.4,1.5-0.79,2.25-1.17
	c0.12-0.06,0.3-0.09,0.41-0.04C21.87,34.92,23.22,35.62,24.57,36.35z M29.37,21.48c-0.05,0.29-0.1,0.58-0.15,0.89
	c0,0-0.56,1.98-1.26,2.86c-0.05,0.06-0.09,0.11-0.13,0.17c-2.35,3.12-5.45,4.41-9.29,3.72c-4.55-0.82-7.77-5.26-7.27-9.87
	c0.28-2.58,0.54-5.17,0.81-7.76c0.05-0.52,0.11-1.03,0.17-1.56c1.15,0,2.24,0,3.34,0.01c0.09,0,0.23,0.14,0.26,0.23
	c0.31,1.27,0.6,2.54,0.9,3.81c0.02,0.07,0,0.15,0,0.26h-3.7c-0.03,0.22-0.05,0.42-0.07,0.61c-0.13,1.18-0.26,2.35-0.39,3.52
	c-0.12,0.99-0.18,1.97-0.05,2.96c0.49,3.59,3.53,6.46,7.15,6.74c4.97,0.38,9.02-3.78,8.51-8.75c-0.11-1.04-0.21-2.09-0.31-3.13
	c-0.07-0.65-0.14-1.29-0.21-1.94h-6.21v1.08h5.24c0.11,1.08,0.22,2.13,0.33,3.19H13.66c0.12-1.08,0.23-2.13,0.35-3.21h6.3v-1.08
	h-0.4c-0.57,0-1.15,0.01-1.72-0.01c-0.11,0-0.28-0.09-0.3-0.17c-0.34-1.36-0.65-2.72-0.98-4.09h11.58c0.04,0.35,0.07,0.69,0.11,1.02
	c0.22,2.23,0.45,4.46,0.67,6.69C29.4,18.93,29.57,20.2,29.37,21.48z"/>
</svg>
