<?xml version="1.0" encoding="utf-8"?>
<!-- Generator: Adobe Illustrator 25.2.3, SVG Export Plug-In . SVG Version: 6.00 Build 0)  -->
<svg version="1.1" id="Layer_1" xmlns="http://www.w3.org/2000/svg" xmlns:xlink="http://www.w3.org/1999/xlink" x="0px" y="0px"
	 viewBox="0 0 40 40" style="enable-background:new 0 0 40 40;" xml:space="preserve">
<style type="text/css">
	.st0{fill:#E60965;}
	.st1{fill:#FFFFFF;}
</style>
<g>
	<path d="M23.97,25.57c-3.23,2.59-6.84,3.59-10.84,2.92c-3.42-0.57-6.19-2.29-8.32-5.03c-4.06-5.22-3.54-12.85,1.2-17.53
		c4.85-4.79,12.4-5.16,17.77-0.87c5.45,4.34,6.81,12.95,1.84,18.87c0.08,0.09,0.17,0.18,0.25,0.26c3.87,3.87,7.74,7.74,11.61,11.61
		c0.54,0.54,0.59,1.26,0.11,1.75c-0.49,0.51-1.23,0.49-1.79-0.07c-3.85-3.85-7.71-7.7-11.56-11.55
		C24.14,25.83,24.07,25.7,23.97,25.57z M26.3,15.44C26.31,9.4,21.45,4.51,15.43,4.5C9.42,4.49,4.51,9.36,4.5,15.35
		C4.48,21.4,9.34,26.28,15.4,26.3C21.4,26.32,26.29,21.45,26.3,15.44z"/>
	<path d="M15.84,6.64c4.58,0.17,8.32,4.02,8.36,8.62c0.01,0.76-0.47,1.31-1.16,1.32c-0.71,0.01-1.21-0.51-1.23-1.3
		c-0.08-3.41-2.73-6.12-6.15-6.26c-0.44-0.02-0.84-0.08-1.14-0.44c-0.31-0.37-0.37-0.78-0.19-1.22c0.17-0.42,0.5-0.68,0.96-0.72
		C15.45,6.63,15.63,6.64,15.84,6.64z"/>
</g>
</svg>
