<?xml version="1.0" encoding="utf-8"?>
<!-- Generator: Adobe Illustrator 25.2.3, SVG Export Plug-In . SVG Version: 6.00 Build 0)  -->
<svg version="1.1" id="Layer_1" xmlns="http://www.w3.org/2000/svg" xmlns:xlink="http://www.w3.org/1999/xlink" x="0px" y="0px"
	 viewBox="0 0 40 40" style="enable-background:new 0 0 40 40;" xml:space="preserve">
<style type="text/css">
	.st0{fill:#E60965;}
	.st1{fill:#FFFFFF;}
</style>
<g>
	<path class="st0" d="M20,2.22c9.82,0,17.8,7.98,17.78,17.8C37.76,29.83,29.81,37.78,20,37.78c-9.82,0-17.8-7.99-17.78-17.8
		C2.24,10.17,10.19,2.22,20,2.22z M31.03,31.6c3.96-3.47,6.52-10.23,4.14-16.98c-2.3-6.52-8.81-11.27-16.5-10.65
		C11.86,4.52,5.9,9.42,4.3,16.47c-1.45,6.41,1.36,12.35,4.68,15.1c-0.21-5.67,2.17-9.69,7.47-11.86c-3.03-2.38-2.99-6.44-0.86-8.78
		c2.21-2.42,6.02-2.61,8.42-0.4c1.23,1.13,1.87,2.55,1.91,4.21c0.05,2.05-0.77,3.71-2.38,4.95C28.89,21.87,31.2,25.93,31.03,31.6z"
		/>
</g>
</svg>
